<?xml version="1.0" standalone="no"?><!DOCTYPE svg PUBLIC "-//W3C//DTD SVG 1.1//EN" "http://www.w3.org/Graphics/SVG/1.1/DTD/svg11.dtd"><svg height="550" node-id="1" sillyvg="true" template-height="550" template-width="954" version="1.1" viewBox="0 0 954 550" width="954" xmlns="http://www.w3.org/2000/svg" xmlns:xlink="http://www.w3.org/1999/xlink"><defs node-id="85"><linearGradient gradientUnits="userSpaceOnUse" id="6beaf3f8-3e45-4d0f-940e-4f825d2ab248" node-id="3" spreadMethod="pad" x1="569.11" x2="569.11" y1="596.37" y2="230.62"><stop offset="0" stop-color="#808080" stop-opacity="0.25"></stop><stop offset="0.54" stop-color="#808080" stop-opacity="0.12"></stop><stop offset="1" stop-color="#808080" stop-opacity="0.1"></stop></linearGradient><linearGradient gradientUnits="userSpaceOnUse" id="618658e0-5682-4211-900b-639feb09c488" node-id="7" spreadMethod="pad" x1="878.33" x2="878.33" y1="643.77" y2="175.07"><stop offset="0" stop-color="#808080" stop-opacity="0.25"></stop><stop offset="0.54" stop-color="#808080" stop-opacity="0.12"></stop><stop offset="1" stop-color="#808080" stop-opacity="0.1"></stop></linearGradient></defs><g node-id="408"><path d="M 236.74 360.11 L 219.26 354.28 L 201.30 348.86 L 189.19 345.61 L 177.05 342.78 L 164.86 340.38 L 155.64 338.91 L 146.50 337.81 L 137.41 337.08 L 128.38 336.71 L 119.32 336.77 L 110.39 337.32 L 101.56 338.36 L 92.84 339.89 L 84.24 341.96 L 75.79 344.66 L 67.45 347.98 L 59.22 351.95 L 54.16 354.87 L 49.42 358.26 L 46.55 360.85 L 44.07 363.74 L 41.98 366.95 L 40.36 370.62 L 39.30 374.37 L 38.78 378.24 L 38.67 382.18 L 38.85 386.21 L 39.32 390.35 L 41.27 402.81 L 42.06 409.06 L 42.33 415.17 L 42.09 419.19 L 41.38 423.11 L 40.18 426.95 L 38.74 430.00 L 36.99 432.92 L 34.92 435.72 L 31.45 439.67 L 27.62 443.47 L 19.71 450.78 L 15.94 454.48 L 12.62 458.20 L 10.66 460.82 L 9.05 463.51 L 7.79 466.28 L 6.92 469.17 L 6.53 472.26 L 6.63 475.58 L 7.12 478.18 L 7.92 480.68 L 9.01 483.11 L 11.06 486.55 L 13.47 489.76 L 16.80 493.48 L 20.34 496.84 L 24.09 499.87 L 28.06 502.57 L 33.65 505.70 L 39.54 508.34 L 45.74 510.49 L 52.10 512.15 L 58.64 513.39 L 65.37 514.21 L 72.15 514.63 L 78.97 514.69 L 85.83 514.41 L 92.68 513.80 L 99.40 512.92 L 105.99 511.76 L 118.22 509.08 L 130.42 506.01 L 154.77 499.73 L 166.99 497.03 L 179.23 494.97 L 187.43 494.06 L 195.68 493.65 L 203.99 493.76 L 211.95 494.46 L 219.80 495.64 L 227.55 497.31 L 235.21 499.38 L 242.82 501.78 L 250.38 504.49 L 261.58 508.97 L 272.70 513.79 L 294.75 523.68 L 304.71 527.95 L 314.89 531.99 L 325.27 535.79 L 335.77 539.25 L 346.34 542.29 L 356.99 544.91 L 367.73 547.05 L 378.43 548.58 L 389.09 549.54 L 397.12 549.82 L 405.08 549.69 L 412.96 549.13 L 420.80 548.15 L 428.55 546.70 L 436.20 544.74 L 443.78 542.26 L 451.30 539.24 L 459.62 535.16 L 467.64 530.56 L 475.46 525.59 L 483.16 520.38 L 498.50 509.84 L 506.30 504.79 L 514.30 500.09 L 521.71 496.29 L 529.26 492.92 L 536.93 489.96 L 544.76 487.43 L 552.71 485.30 L 560.74 483.61 L 568.84 482.34 L 577.03 481.50 L 585.25 481.10 L 593.47 481.14 L 601.72 481.61 L 610.00 482.53 L 620.92 484.44 L 631.72 486.93 L 642.44 489.81 L 653.12 492.89 L 663.80 495.95 L 674.53 498.81 L 686.81 501.60 L 699.15 503.93 L 711.56 505.80 L 724.04 507.27 L 736.56 508.42 L 749.14 509.23 L 768.04 509.99 L 786.99 510.29 L 824.86 510.14 L 831.91 510.03 L 838.96 509.67 L 843.62 509.19 L 848.22 508.39 L 852.76 507.26 L 857.12 505.73 L 861.31 503.89 L 865.36 501.72 L 871.21 498.03 L 876.84 493.92 L 882.30 489.53 L 887.62 485.04 L 898.01 475.89 L 902.99 471.04 L 907.65 465.98 L 910.54 462.43 L 913.16 458.76 L 915.53 454.96 L 917.59 451.00 L 919.28 446.86 L 920.62 442.52 L 921.61 437.22 L 921.97 431.95 L 921.71 426.67 L 920.90 421.44 L 919.58 416.29 L 917.74 411.20 L 915.47 406.29 L 912.81 401.56 L 909.74 397.00 L 906.33 392.68 L 902.66 388.66 L 898.72 384.93 L 893.13 380.41 L 887.28 376.30 L 881.16 372.59 L 874.83 369.21 L 868.35 366.07 L 861.70 363.18 L 851.60 359.15 L 841.46 355.34 L 836.37 353.61 L 833.77 352.97 L 831.17 352.59 L 828.58 352.58 L 826.00 353.02 L 823.58 353.94 L 821.33 355.25 L 819.25 356.83 L 817.30 358.59 L 813.08 362.95 L 808.86 367.75 L 800.49 377.44 L 796.15 381.98 L 791.73 385.90 L 788.60 388.19 L 785.40 390.00 L 782.11 391.37 L 778.68 392.22 L 775.05 392.47 L 771.16 392.08 L 767.76 391.13 L 764.54 389.71 L 761.49 387.92 L 758.53 385.85 L 752.89 381.37 L 746.86 376.66 L 740.58 372.15 L 734.03 367.84 L 727.30 363.82 L 720.43 360.17 L 713.41 356.88 L 706.22 354.00 L 698.99 351.63 L 691.71 349.76 L 684.32 348.45 L 676.96 347.78 L 669.62 347.75 L 664.13 348.18 L 658.68 349.04 L 653.25 350.34 L 647.82 352.10 L 642.70 354.24 L 637.74 356.71 L 632.95 359.49 L 625.98 364.08 L 619.17 369.04 L 605.72 379.22 L 598.88 384.09 L 591.86 388.54 L 587.02 391.21 L 582.01 393.52 L 576.82 395.50 L 572.07 396.88 L 567.28 397.95 L 562.43 398.71 L 555.09 399.44 L 547.65 399.77 L 532.69 399.89 L 525.19 399.97 L 517.75 400.27 L 506.99 401.29 L 496.27 402.87 L 474.93 406.82 L 464.26 408.75 L 453.58 410.33 L 446.44 411.10 L 439.28 411.52 L 432.08 411.59 L 422.93 411.03 L 413.92 409.86 L 405.03 408.06 L 396.24 405.74 L 387.52 402.99 L 378.85 399.79 L 366.02 394.43 L 353.25 388.50 L 327.94 375.88 L 315.29 369.61 L 302.65 363.66 L 294.14 359.94 L 285.63 356.56 L 277.09 353.53 L 268.44 350.90 L 259.74 348.79 L 250.98 347.20 L 244.36 346.41 L 237.68 346.00 L 230.90 346.00 L 224.03 346.39 L 221.14 346.73 L 218.24 347.27 L 215.42 348.08 L 212.82 349.21 L 210.49 350.75 L 208.51 352.77" fill="#6c63ff" fill-opacity="0.5" fill-rule="nonzero" group-id="1" node-id="106" stroke="none" target-height="213.11258" target-width="915.439" target-x="6.529846" target-y="336.71"></path></g><g node-id="409"><path d="M 144.00 293.22 L 142.06 294.56 L 140.13 296.10 L 137.52 298.50 L 134.96 301.31 L 132.33 304.89 L 130.80 307.49 L 129.49 310.38 L 128.41 313.59 L 127.72 316.89 L 127.47 320.50 L 127.70 324.47 L 128.44 328.36 L 129.88 332.64 L 132.12 337.38 L 134.87 341.83 L 138.64 346.75 L 143.62 352.19 L 148.99 357.21 L 155.75 362.71 L 164.13 368.75 L 172.78 374.33 L 183.19 380.37 L 195.58 386.93 L 196.88 384.27 L 198.14 381.36 L 199.86 376.91 L 201.51 371.96 L 203.19 365.83 L 204.54 359.31 L 205.52 351.96 L 205.84 346.95 L 205.83 341.73 L 205.48 336.27 L 204.74 330.86 L 203.50 325.35 L 201.75 319.71 L 199.50 314.26 L 196.59 308.78 L 192.96 303.24 L 189.97 299.64 L 186.70 296.54 L 183.11 293.91 L 179.23 291.73 L 175.19 290.05 L 170.96 288.86 L 166.62 288.17 L 162.25 288.01 L 157.81 288.37 L 153.45 289.26 L 149.18 290.70 L 144.96 292.72 Z" fill="#6c63ff" fill-rule="nonzero" group-id="2" node-id="111" stroke="none" target-height="98.920105" target-width="78.36859" target-x="127.47064" target-y="288.0099"></path></g><g node-id="410"><path d="M 144.73 292.45 L 147.62 294.82 L 150.64 297.48 L 155.07 301.65 L 159.74 306.41 L 165.21 312.48 L 170.60 319.12 L 176.19 326.87 L 179.68 332.31 L 183.00 338.13 L 186.15 344.36 L 188.91 350.76 L 191.27 357.48 L 193.23 364.52 L 194.34 369.88 L 195.11 375.38 L 195.53 381.05 L 195.59 386.90" fill="none" group-id="3" node-id="116" stroke="#535461" stroke-linecap="butt" stroke-width="1" target-height="94.44998" target-width="50.859985" target-x="144.73001" target-y="292.44998"></path></g><g node-id="411"><path d="M 917.15 262.49 L 918.22 267.61 L 918.86 273.53 L 919.02 280.39 L 918.75 287.22 L 918.10 294.66 L 917.04 302.74 L 914.93 314.89 L 912.17 327.78 L 908.96 340.75 L 905.39 353.78 L 901.55 366.68 L 897.66 378.97 L 889.95 401.62 L 883.25 419.96 L 878.51 432.25 L 876.72 436.73 L 872.89 433.78 L 862.56 425.62 L 847.45 413.24 L 829.29 397.67 L 819.68 389.07 L 809.81 379.92 L 800.10 370.52 L 790.74 361.00 L 781.79 351.30 L 773.79 341.92 L 768.77 335.50 L 764.42 329.43 L 760.71 323.69 L 757.36 317.71 L 754.90 312.28 L 753.21 307.33 L 751.75 301.72 L 750.67 296.12 L 749.98 290.52 L 749.68 284.90 L 749.74 279.26 L 750.17 273.69 L 750.96 268.18 L 752.12 262.71 L 753.63 257.33 L 755.48 252.08 L 757.69 246.95 L 760.25 241.92 L 763.12 237.09 L 766.33 232.44 L 769.88 227.98 L 773.78 223.69 L 777.97 219.68 L 782.33 216.02 L 786.89 212.69 L 791.65 209.69 L 796.61 207.00 L 801.68 204.67 L 806.89 202.67 L 812.23 201.02 L 817.66 199.73 L 823.15 198.79 L 828.71 198.22 L 834.34 198.01 L 839.97 198.17 L 845.59 198.71 L 851.21 199.64 L 856.86 200.96 L 862.40 202.67 L 867.72 204.70 L 872.85 207.07 L 877.79 209.76 L 882.55 212.79 L 887.06 216.08 L 891.33 219.66 L 895.37 223.52 L 899.15 227.64 L 902.64 231.98 L 905.84 236.56 L 908.76 241.38 L 911.36 246.37 L 913.62 251.54 L 915.55 256.91 L 917.14 262.48 Z" fill="#6c63ff" fill-rule="nonzero" group-id="4" node-id="121" stroke="none" target-height="238.72113" target-width="169.34845" target-x="749.6756" target-y="198.00885"></path></g><g node-id="412"><path d="M 917.15 262.49 L 918.22 267.61 L 918.86 273.53 L 919.02 280.39 L 918.75 287.22 L 918.10 294.66 L 917.04 302.74 L 914.93 314.89 L 912.17 327.78 L 908.96 340.75 L 905.39 353.78 L 901.55 366.68 L 897.66 378.97 L 889.95 401.62 L 883.25 419.96 L 878.51 432.25 L 876.72 436.73 L 872.89 433.78 L 862.56 425.62 L 847.45 413.24 L 829.29 397.67 L 819.68 389.07 L 809.81 379.92 L 800.10 370.52 L 790.74 361.00 L 781.79 351.30 L 773.79 341.92 L 768.77 335.50 L 764.42 329.43 L 760.71 323.69 L 757.36 317.71 L 754.90 312.28 L 753.21 307.33 L 751.75 301.72 L 750.67 296.12 L 749.98 290.52 L 749.68 284.90 L 749.74 279.26 L 750.17 273.69 L 750.96 268.18 L 752.12 262.71 L 753.63 257.33 L 755.48 252.08 L 757.69 246.95 L 760.25 241.92 L 763.12 237.09 L 766.33 232.44 L 769.88 227.98 L 773.78 223.69 L 777.97 219.68 L 782.33 216.02 L 786.89 212.69 L 791.65 209.69 L 796.61 207.00 L 801.68 204.67 L 806.89 202.67 L 812.23 201.02 L 817.66 199.73 L 823.15 198.79 L 828.71 198.22 L 834.34 198.01 L 839.97 198.17 L 845.59 198.71 L 851.21 199.64 L 856.86 200.96 L 862.40 202.67 L 867.72 204.70 L 872.85 207.07 L 877.79 209.76 L 882.55 212.79 L 887.06 216.08 L 891.33 219.66 L 895.37 223.52 L 899.15 227.64 L 902.64 231.98 L 905.84 236.56 L 908.76 241.38 L 911.36 246.37 L 913.62 251.54 L 915.55 256.91 L 917.14 262.48 Z" fill="#000000" fill-opacity="0.1" fill-rule="nonzero" group-id="5" node-id="126" stroke="none" target-height="238.72113" target-width="169.34845" target-x="749.6756" target-y="198.00885"></path></g><g node-id="413"><path d="M 813.21 203.20 L 816.17 207.94 L 819.28 213.19 L 823.94 221.54 L 828.88 230.94 L 834.82 243.06 L 840.75 256.14 L 847.15 271.58 L 851.20 282.22 L 855.23 293.73 L 859.23 306.16 L 862.87 318.67 L 866.26 331.90 L 869.39 345.88 L 872.04 359.94 L 874.23 374.57 L 875.94 389.79 L 876.83 401.21 L 877.34 412.87 L 877.47 424.79 L 877.21 436.98" fill="none" group-id="6" node-id="131" stroke="#535461" stroke-linecap="butt" stroke-width="1" target-height="233.78" target-width="64.25885" target-x="813.21" target-y="203.19998"></path></g><g node-id="414"><path d="M 934.80 345.23 L 932.66 344.23 L 930.36 343.34 L 926.97 342.31 L 923.25 341.51 L 918.83 341.05 L 915.82 341.04 L 912.66 341.37 L 909.34 342.06 L 906.14 343.13 L 902.90 344.74 L 899.60 346.93 L 896.61 349.54 L 893.65 352.95 L 890.69 357.27 L 888.84 360.64 L 887.06 364.61 L 885.35 369.26 L 883.73 374.68 L 882.11 381.84 L 880.78 390.46 L 879.81 400.74 L 879.37 411.01 L 879.41 423.05 L 880.02 437.06 L 882.97 436.83 L 886.12 436.46 L 890.83 435.69 L 895.93 434.62 L 902.07 432.96 L 908.38 430.84 L 915.21 427.96 L 919.70 425.71 L 924.20 423.07 L 928.74 420.01 L 933.02 416.63 L 937.16 412.78 L 941.14 408.42 L 944.71 403.72 L 947.97 398.44 L 950.91 392.51 L 952.51 388.11 L 953.53 383.72 L 953.98 379.29 L 953.90 374.84 L 953.31 370.50 L 952.20 366.25 L 950.60 362.15 L 948.53 358.30 L 945.98 354.65 L 943.00 351.34 L 939.60 348.38 L 935.72 345.76 Z" fill="#6c63ff" fill-rule="nonzero" group-id="7" node-id="136" stroke="none" target-height="96.01813" target-width="74.61401" target-x="879.3684" target-y="341.04187"></path></g><g node-id="415"><path d="M 935.83 345.45 L 935.24 349.15 L 934.48 353.09 L 933.11 359.02 L 931.37 365.46 L 928.89 373.25 L 925.88 381.26 L 922.02 389.99 L 919.09 395.76 L 915.74 401.56 L 911.95 407.43 L 907.82 413.05 L 903.23 418.48 L 898.13 423.73 L 894.08 427.39 L 889.72 430.83 L 885.04 434.05 L 880.02 437.06" fill="none" group-id="8" node-id="141" stroke="#535461" stroke-linecap="butt" stroke-width="1" target-height="91.609985" target-width="55.809937" target-x="880.02" target-y="345.45"></path></g><g node-id="416"><path d="M 16.56 331.19 L 14.62 332.53 L 12.69 334.07 L 10.08 336.47 L 7.51 339.28 L 4.88 342.85 L 3.35 345.46 L 2.04 348.35 L 0.96 351.56 L 0.27 354.86 L 0.02 358.46 L 0.24 362.43 L 0.98 366.32 L 2.42 370.60 L 4.66 375.34 L 6.63 378.63 L 9.15 382.18 L 12.30 386.00 L 16.16 390.14 L 21.52 395.15 L 28.29 400.65 L 36.67 406.69 L 45.31 412.26 L 55.73 418.31 L 68.12 424.86 L 69.42 422.20 L 70.68 419.29 L 72.40 414.84 L 74.05 409.89 L 75.73 403.76 L 77.08 397.24 L 78.06 389.89 L 78.38 384.88 L 78.37 379.66 L 78.02 374.20 L 77.28 368.79 L 76.04 363.28 L 74.29 357.64 L 72.04 352.19 L 69.13 346.71 L 65.50 341.17 L 62.51 337.57 L 59.24 334.47 L 55.65 331.84 L 51.77 329.66 L 47.73 327.98 L 43.50 326.79 L 39.16 326.10 L 34.79 325.94 L 30.35 326.30 L 25.99 327.19 L 21.72 328.63 L 17.50 330.65 Z" fill="#6c63ff" fill-rule="nonzero" group-id="9" node-id="146" stroke="none" target-height="98.920105" target-width="78.36301" target-x="0.016235352" target-y="325.93988"></path></g><g node-id="417"><path d="M 17.26 330.42 L 20.15 332.79 L 23.17 335.45 L 27.60 339.62 L 32.27 344.38 L 37.74 350.45 L 43.13 357.09 L 48.72 364.84 L 52.21 370.28 L 55.53 376.10 L 58.68 382.33 L 61.44 388.73 L 63.80 395.45 L 65.76 402.49 L 66.87 407.85 L 67.64 413.35 L 68.06 419.02 L 68.12 424.87" fill="none" group-id="10" node-id="151" stroke="#535461" stroke-linecap="butt" stroke-width="1" target-height="94.45001" target-width="50.86" target-x="17.259995" target-y="330.41998"></path></g><g node-id="418"><path d="M 779.43 379.20 L 715.18 379.20 L 716.42 376.12 L 717.17 372.94 L 717.42 369.63 L 717.42 77.07 L 717.20 74.09 L 716.64 71.31 L 715.73 68.69 L 714.48 66.21 L 712.35 63.19 L 709.79 60.63 L 706.77 58.50 L 704.29 57.25 L 701.67 56.34 L 698.89 55.78 L 695.91 55.56 L 198.58 55.56 L 195.60 55.78 L 192.82 56.34 L 190.20 57.25 L 187.72 58.50 L 184.70 60.63 L 182.14 63.19 L 180.01 66.21 L 178.76 68.69 L 177.85 71.31 L 177.29 74.09 L 177.07 77.07 L 177.07 369.64 L 177.32 372.95 L 178.07 376.13 L 179.31 379.21 L 112.79 379.21 L 111.29 379.41 L 109.96 379.97 L 108.76 380.89 L 107.84 382.09 L 107.30 383.43 L 107.10 384.93 L 107.10 389.52 L 107.40 393.89 L 108.24 398.01 L 109.60 401.91 L 111.46 405.60 L 113.73 408.96 L 116.42 412.02 L 119.48 414.71 L 122.84 416.98 L 126.53 418.84 L 130.43 420.20 L 134.55 421.04 L 138.92 421.34 L 753.30 421.34 L 757.67 421.04 L 761.79 420.20 L 765.69 418.84 L 769.38 416.98 L 772.74 414.71 L 775.80 412.02 L 778.49 408.96 L 780.76 405.60 L 782.62 401.91 L 783.98 398.01 L 784.82 393.89 L 785.12 389.52 L 785.12 384.93 L 784.93 383.43 L 784.38 382.09 L 783.47 380.88 L 782.26 379.96 L 780.93 379.40 L 779.43 379.20 Z M 383.54 397.40 L 378.00 391.15 L 514.78 391.15 L 508.68 397.41 Z" fill="url(#6beaf3f8-3e45-4d0f-940e-4f825d2ab248)" fill-rule="nonzero" group-id="11" node-id="156" stroke="none" target-height="365.77997" target-width="678.02" target-x="107.100006" target-y="55.559998"></path></g><path d="M 206.42 59.70 L 688.02 59.70 C 700.87 59.70 711.28 70.11 711.28 82.96 L 711.28 364.43 C 711.28 377.28 700.87 387.69 688.02 387.69 L 206.42 387.69 C 193.57 387.69 183.16 377.28 183.16 364.43 L 183.16 82.96 C 183.16 70.11 193.57 59.70 206.42 59.70 Z" fill="#535461" fill-rule="nonzero" node-id="159" stroke="none" target-height="327.99" target-width="528.12" target-x="183.16" target-y="59.7"></path><path d="M 194.28 107.51 L 699.05 107.51 L 699.05 375.46 L 194.28 375.46 Z" fill="#ffffff" fill-rule="nonzero" node-id="161" stroke="none" target-height="267.94998" target-width="504.77" target-x="194.28" target-y="107.51"></path><path d="M 451.12 84.16 C 451.12 86.62 449.13 88.61 446.67 88.61 C 444.21 88.61 442.22 86.62 442.22 84.16 C 442.22 81.70 444.21 79.71 446.67 79.71 C 449.13 79.71 451.12 81.70 451.12 84.16 Z" fill="#ffffff" fill-rule="nonzero" node-id="163" stroke="none" target-height="8.900002" target-width="8.899994" target-x="442.22" target-y="79.71"></path><path d="M 524.60 376.01 L 507.26 393.80 L 385.00 393.80 L 369.33 376.01 L 120.34 376.01 L 118.83 376.22 L 117.54 376.76 L 116.41 377.64 L 115.53 378.77 L 114.99 380.06 L 114.78 381.57 L 114.78 386.05 L 115.08 390.32 L 115.89 394.34 L 117.22 398.16 L 119.04 401.77 L 121.26 405.05 L 123.89 408.04 L 126.88 410.67 L 130.16 412.89 L 133.77 414.71 L 137.59 416.04 L 141.61 416.85 L 145.88 417.15 L 746.34 417.15 L 750.61 416.85 L 754.63 416.04 L 758.45 414.71 L 762.06 412.89 L 765.34 410.67 L 768.33 408.04 L 770.96 405.05 L 773.18 401.77 L 775.00 398.16 L 776.33 394.34 L 777.14 390.32 L 777.44 386.05 L 777.44 381.57 L 777.23 380.06 L 776.69 378.77 L 775.81 377.64 L 774.68 376.76 L 773.39 376.22 L 771.88 376.01 Z" fill="#535461" fill-rule="nonzero" group-id="12" node-id="167" stroke="none" target-height="41.139954" target-width="662.66003" target-x="114.78" target-y="376.01"></path><path d="M 258.77 124.19 L 258.77 352.11 L 635.67 352.11" fill="none" node-id="170" stroke="#535461" stroke-linecap="butt" stroke-width="2" target-height="227.91998" target-width="376.9" target-x="258.77" target-y="124.19"></path><path d="M 292.12 283.18 L 331.03 283.18 L 331.03 343.22 L 292.12 343.22 Z" fill="#6c63ff" fill-opacity="0.5" fill-rule="nonzero" group-id="13" node-id="174" stroke="none" target-height="60.04001" target-width="38.910004" target-x="292.12" target-y="283.18"></path><path d="M 358.83 229.81 L 397.74 229.81 L 397.74 343.22 L 358.83 343.22 Z" fill="#6c63ff" fill-opacity="0.7" fill-rule="nonzero" group-id="14" node-id="179" stroke="none" target-height="113.41" target-width="38.910004" target-x="358.83" target-y="229.81"></path><path d="M 425.54 262.05 L 464.45 262.05 L 464.45 343.21 L 425.54 343.21 Z" fill="#6c63ff" fill-opacity="0.5" fill-rule="nonzero" group-id="15" node-id="184" stroke="none" target-height="81.16" target-width="38.910004" target-x="425.54" target-y="262.05"></path><path d="M 492.25 212.02 L 531.16 212.02 L 531.16 343.22 L 492.25 343.22 Z" fill="#6c63ff" fill-opacity="0.8" fill-rule="nonzero" group-id="16" node-id="189" stroke="none" target-height="131.2" target-width="38.909973" target-x="492.25" target-y="212.02"></path><path d="M 558.96 165.32 L 597.87 165.32 L 597.87 343.21 L 558.96 343.21 Z" fill="#6c63ff" fill-rule="nonzero" node-id="192" stroke="none" target-height="177.88998" target-width="38.909973" target-x="558.96" target-y="165.32"></path><path d="M 311.02 246.49 L 378.84 185.34 L 445.55 243.15 L 511.15 173.11 L 577.86 145.31" fill="none" node-id="194" stroke="#535461" stroke-linecap="butt" stroke-width="2" target-height="101.18001" target-width="266.84" target-x="311.02" target-y="145.31"></path><path d="M 318.80 246.49 C 318.80 250.79 315.32 254.27 311.02 254.27 C 306.72 254.27 303.24 250.79 303.24 246.49 C 303.24 242.19 306.72 238.71 311.02 238.71 C 315.32 238.71 318.80 242.19 318.80 246.49 Z" fill="#6c63ff" fill-rule="nonzero" node-id="196" stroke="none" target-height="15.559998" target-width="15.559998" target-x="303.24" target-y="238.71"></path><path d="M 452.22 242.04 C 452.22 246.34 448.74 249.82 444.44 249.82 C 440.14 249.82 436.66 246.34 436.66 242.04 C 436.66 237.74 440.14 234.26 444.44 234.26 C 448.74 234.26 452.22 237.74 452.22 242.04 Z" fill="#6c63ff" fill-rule="nonzero" node-id="198" stroke="none" target-height="15.560013" target-width="15.559998" target-x="436.66" target-y="234.26"></path><path d="M 520.04 173.11 C 520.04 177.41 516.56 180.89 512.26 180.89 C 507.96 180.89 504.48 177.41 504.48 173.11 C 504.48 168.81 507.96 165.33 512.26 165.33 C 516.56 165.33 520.04 168.81 520.04 173.11 Z" fill="#6c63ff" fill-rule="nonzero" node-id="200" stroke="none" target-height="15.559998" target-width="15.559967" target-x="504.48" target-y="165.33"></path><path d="M 386.62 184.22 C 386.62 188.52 383.14 192.00 378.84 192.00 C 374.54 192.00 371.06 188.52 371.06 184.22 C 371.06 179.92 374.54 176.44 378.84 176.44 C 383.14 176.44 386.62 179.92 386.62 184.22 Z" fill="#6c63ff" fill-rule="nonzero" node-id="202" stroke="none" target-height="15.559998" target-width="15.559998" target-x="371.06" target-y="176.44"></path><path d="M 585.64 145.31 C 585.64 149.61 582.16 153.09 577.86 153.09 C 573.56 153.09 570.08 149.61 570.08 145.31 C 570.08 141.01 573.56 137.53 577.86 137.53 C 582.16 137.53 585.64 141.01 585.64 145.31 Z" fill="#6c63ff" fill-rule="nonzero" node-id="204" stroke="none" target-height="15.559998" target-width="15.559998" target-x="570.08" target-y="137.53"></path><path d="M 867.31 385.75 L 862.67 384.42 L 860.09 383.86 L 857.43 383.46 L 854.78 383.28 L 852.31 383.39 L 846.01 380.85 L 842.07 379.00 L 837.71 376.64 L 833.48 373.94 L 829.56 370.87 L 829.60 361.25 L 829.07 351.65 L 828.36 340.86 L 828.10 331.15 L 828.22 322.45 L 828.94 309.85 L 830.01 300.01 L 831.39 291.20 L 832.51 285.61 L 833.78 280.52 L 834.47 278.13 L 836.08 271.79 L 837.94 262.68 L 838.74 257.53 L 839.37 252.04 L 839.72 246.50 L 839.71 241.07 L 840.38 242.36 L 841.03 234.63 L 842.30 226.99 L 844.03 219.54 L 846.00 212.72 L 848.17 206.27 L 850.16 201.01 L 850.60 200.85 L 855.00 190.41 L 855.83 188.48 L 856.54 186.83 L 856.33 186.74 L 856.54 185.89 L 856.54 185.89 L 857.33 182.05 L 858.14 177.15 L 859.51 166.64 L 860.59 156.49 L 861.29 148.83 L 861.54 145.80 L 862.74 139.81 L 863.33 134.37 L 863.36 129.41 L 862.93 124.45 L 862.19 120.02 L 861.15 116.08 L 859.11 110.49 L 857.00 106.15 L 854.71 102.35 L 852.98 99.94 L 851.18 97.80 L 820.80 71.66 L 821.10 72.73 L 820.85 72.51 L 819.49 68.13 L 821.05 66.91 L 822.49 65.56 L 824.88 62.94 L 826.82 60.01 L 828.31 56.82 L 829.30 53.41 L 829.74 49.75 L 829.89 46.09 L 829.75 42.41 L 829.25 29.80 L 829.05 26.11 L 828.50 22.45 L 827.44 19.22 L 825.89 16.27 L 823.85 13.58 L 821.42 11.21 L 818.70 9.18 L 815.65 7.50 L 812.42 6.22 L 809.10 5.39 L 805.67 4.99 L 800.76 5.11 L 795.87 5.51 L 791.87 5.72 L 787.87 5.68 L 787.01 5.45 L 786.74 5.05 L 786.64 4.58 L 786.70 3.39 L 787.05 2.32 L 787.70 1.33 L 789.08 0.54 L 788.35 0.71 L 789.55 0.06 L 786.91 0.68 L 784.39 1.60 L 781.97 2.81 L 780.20 4.30 L 778.96 5.69 L 778.11 7.26 L 777.64 9.06 L 776.49 7.89 L 775.60 6.56 L 774.94 5.06 L 774.82 4.09 L 774.94 3.12 L 774.42 3.80 L 774.42 3.59 L 772.67 6.11 L 771.34 8.81 L 770.42 11.73 L 769.83 10.63 L 769.70 9.39 L 769.28 10.80 L 769.28 9.86 L 768.32 13.53 L 767.79 17.25 L 767.71 21.04 L 767.85 23.02 L 768.30 25.28 L 769.06 27.47 L 770.15 29.44 L 771.10 30.57 L 772.18 31.43 L 773.44 32.04 L 774.08 32.21 L 772.52 35.03 L 771.34 37.92 L 770.54 40.90 L 770.11 43.99 L 770.06 47.11 L 770.38 50.18 L 771.09 53.22 L 772.20 56.25 L 773.69 59.10 L 775.46 61.68 L 777.51 63.98 L 779.85 66.05 L 782.43 67.81 L 785.17 69.23 L 788.09 70.31 L 791.23 71.05 L 791.42 72.50 L 791.58 72.50 L 791.84 75.72 L 790.24 77.14 L 788.50 78.40 L 784.96 80.16 L 781.27 81.38 L 777.38 82.08 L 773.87 82.55 L 770.48 83.37 L 767.20 84.54 L 764.01 86.08 L 761.58 87.53 L 759.15 89.19 L 756.87 91.04 L 754.88 93.04 L 753.24 95.24 L 752.13 97.54 L 751.24 99.50 L 749.87 101.68 L 747.94 104.13 L 744.65 107.55 L 740.68 110.96 L 736.38 114.03 L 732.00 116.57 L 728.95 117.98 L 726.15 118.96 L 723.57 119.54 L 719.89 119.33 L 719.62 119.25 L 719.62 119.32 L 718.72 119.27 L 718.67 119.27 L 718.43 119.27 L 718.43 119.32 L 717.50 119.27 L 717.28 120.46 L 714.46 119.39 L 710.22 117.43 L 705.66 114.93 L 699.83 111.20 L 693.80 106.74 L 686.65 100.66 L 682.44 97.32 L 678.19 94.70 L 673.89 92.74 L 669.38 91.23 L 665.02 90.20 L 660.78 89.60 L 654.50 89.30 L 649.11 89.54 L 644.12 90.16 L 640.65 90.82 L 639.91 91.24 L 639.54 92.01 L 639.68 92.86 L 640.27 93.47 L 644.08 95.48 L 648.10 97.33 L 649.96 98.01 L 651.27 98.31 L 650.57 99.17 L 649.99 100.07 L 649.43 101.27 L 649.15 102.56 L 649.30 103.89 L 649.67 104.70 L 650.39 105.50 L 651.59 106.31 L 652.61 106.64 L 653.64 106.68 L 654.66 106.44 L 655.59 105.92 L 656.50 105.54 L 657.80 105.46 L 659.65 105.78 L 666.46 107.93 L 670.68 109.26 L 675.73 110.54 L 677.97 112.81 L 683.87 118.58 L 692.21 126.29 L 696.90 130.38 L 701.76 134.39 L 706.70 138.17 L 711.30 141.33 L 715.88 143.97 L 719.61 145.54 L 720.72 147.47 L 721.62 147.40 L 721.62 147.47 L 722.00 147.47 L 722.11 148.47 L 724.52 148.28 L 730.55 147.53 L 734.28 146.86 L 738.37 145.92 L 742.41 144.71 L 746.16 143.20 L 748.52 141.95 L 750.49 140.57 L 752.11 139.06 L 753.54 137.53 L 745.67 236.53 L 745.74 236.53 L 745.67 237.47 L 751.46 237.47 L 751.64 246.61 L 751.44 255.73 L 750.86 264.84 L 749.89 273.93 L 749.89 338.47 L 750.03 339.49 L 750.36 340.57 L 751.22 342.35 L 752.45 344.24 L 754.62 346.77 L 757.32 349.32 L 761.39 352.47 L 773.61 361.29 L 785.52 370.52 L 797.11 380.16 L 798.54 381.40 L 797.27 392.45 L 795.70 404.89 L 793.90 417.26 L 791.96 428.09 L 790.92 432.70 L 789.98 435.93 L 789.19 437.92 L 788.55 438.93 L 788.04 439.33 L 790.38 439.74 L 787.22 443.67 L 783.02 448.64 L 778.53 453.59 L 776.32 455.80 L 774.46 457.44 L 772.67 458.70 L 771.56 459.11 L 770.05 459.55 L 768.78 460.44 L 767.83 461.64 L 767.32 463.00 L 767.33 464.40 L 767.98 465.74 L 768.72 466.45 L 769.87 467.08 L 771.56 467.59 L 778.67 468.49 L 785.75 468.75 L 792.84 468.37 L 799.87 467.36 L 806.77 465.72 L 813.56 463.45 L 814.85 462.75 L 815.90 461.85 L 816.74 460.73 L 817.31 459.45 L 817.59 458.10 L 817.56 456.63 L 816.19 446.23 L 816.79 446.86 L 817.10 447.56 L 817.19 447.46 L 817.14 446.04 L 816.92 444.08 L 816.79 443.09 L 820.39 430.56 L 823.42 417.89 L 825.90 405.09 L 839.90 417.19 L 840.67 416.19 L 843.59 423.36 L 845.10 427.65 L 846.56 432.41 L 847.77 437.30 L 848.63 442.20 L 849.03 447.07 L 848.85 451.55 L 848.73 454.22 L 848.94 456.02 L 849.37 457.20 L 850.12 458.15 L 851.01 458.66 L 852.09 458.80 L 853.85 458.41 L 855.91 457.31 L 857.86 455.74 L 859.73 453.71 L 861.30 451.40 L 862.45 448.95 L 862.94 447.24 L 863.11 445.60 L 862.98 444.01 L 862.76 441.34 L 862.97 436.84 L 863.50 431.88 L 864.35 425.89 L 866.54 413.34 L 868.92 401.33 L 870.91 392.01 L 871.03 390.64 L 870.83 389.38 L 870.32 388.18 L 869.54 387.15 L 868.55 386.34 L 867.31 385.75 Z" fill="url(#618658e0-5682-4211-900b-639feb09c488)" fill-rule="nonzero" group-id="17" node-id="208" stroke="none" target-height="468.68848" target-width="231.4834" target-x="639.54254" target-y="0.05999756"></path><path d="M 721.00 124.42 L 718.61 123.78 L 716.01 122.86 L 711.86 121.03 L 707.32 118.63 L 701.40 114.91 L 697.43 112.09 L 692.94 108.55 L 687.88 104.18 L 683.76 100.92 L 679.61 98.36 L 675.41 96.44 L 671.00 94.97 L 666.75 93.96 L 662.61 93.38 L 656.49 93.08 L 651.23 93.32 L 646.36 93.92 L 642.98 94.57 L 642.26 94.98 L 641.90 95.73 L 642.03 96.55 L 642.61 97.15 L 646.34 99.11 L 650.26 100.92 L 652.09 101.58 L 653.39 101.88 L 652.70 102.72 L 652.13 103.60 L 651.58 104.77 L 651.30 106.03 L 651.44 107.33 L 651.81 108.12 L 652.52 108.91 L 653.70 109.71 L 654.70 110.04 L 655.72 110.08 L 656.72 109.84 L 657.64 109.33 L 658.53 108.96 L 659.80 108.88 L 661.60 109.20 L 668.26 111.30 L 672.38 112.59 L 677.31 113.84 L 679.53 116.09 L 685.37 121.79 L 693.60 129.41 L 698.23 133.44 L 703.02 137.37 L 707.87 141.07 L 712.38 144.13 L 715.47 145.96 L 718.15 147.27 L 720.47 148.14 L 722.85 148.62 L 724.66 148.48 L 726.07 147.84 Z" fill="#fec3be" fill-rule="nonzero" group-id="18" node-id="213" stroke="none" target-height="55.53766" target-width="84.1723" target-x="641.8977" target-y="93.08191"></path><path d="M 789.11 68.76 L 789.63 71.38 L 790.49 77.96 L 790.73 82.08 L 790.66 86.61 L 790.16 91.15 L 789.11 95.44 L 805.67 97.74 L 820.39 90.38 L 820.39 80.72 L 819.34 78.15 L 818.37 75.39 L 817.17 71.23 L 816.15 66.66 L 815.34 61.12 L 815.06 57.31 L 815.05 53.27 L 815.33 48.98 Z" fill="#fec3be" fill-rule="nonzero" group-id="19" node-id="218" stroke="none" target-height="48.759995" target-width="31.28003" target-x="789.11" target-y="48.979996"></path><path d="M 836.00 407.76 L 837.23 410.33 L 840.10 417.02 L 841.73 421.34 L 843.37 426.34 L 844.76 431.52 L 845.79 436.79 L 846.21 440.34 L 846.31 443.69 L 846.12 446.86 L 846.02 449.96 L 846.38 451.87 L 847.01 452.98 L 848.01 453.72 L 849.19 453.96 L 850.70 453.68 L 852.16 453.01 L 853.70 452.00 L 855.32 450.57 L 857.39 448.10 L 859.01 445.30 L 859.74 443.28 L 860.03 441.36 L 859.92 439.50 L 859.71 436.89 L 859.90 432.49 L 860.42 427.65 L 861.25 421.81 L 863.39 409.55 L 865.72 397.83 L 867.66 388.76 L 867.78 387.43 L 867.59 386.20 L 867.10 385.03 L 866.35 384.02 L 865.39 383.23 L 864.18 382.65 L 861.23 381.76 L 857.72 380.92 L 854.10 380.37 L 850.62 380.26 L 848.35 380.51 L 846.41 381.10 L 844.74 382.01 L 843.49 383.17 L 842.30 384.69 L 841.19 386.63 L 839.84 389.76 L 838.70 393.26 L 837.78 396.83 L 837.10 400.15 L 836.25 405.57 L 836.00 407.76 Z" fill="#8b416f" fill-rule="nonzero" group-id="20" node-id="223" stroke="none" target-height="73.70227" target-width="31.776367" target-x="836" target-y="380.25592"></path><path d="M 790.49 433.52 L 788.83 435.63 L 784.72 440.67 L 779.46 446.73 L 776.72 449.63 L 774.36 451.89 L 772.06 453.66 L 770.71 454.22 L 769.23 454.65 L 767.99 455.51 L 767.06 456.69 L 766.57 458.01 L 766.58 459.38 L 767.22 460.69 L 767.94 461.39 L 769.06 462.00 L 770.71 462.50 L 777.65 463.39 L 784.56 463.64 L 791.48 463.28 L 798.34 462.30 L 805.08 460.71 L 811.71 458.50 L 812.98 457.82 L 814.01 456.95 L 814.83 455.85 L 815.39 454.60 L 815.66 453.28 L 815.64 451.84 L 813.00 432.14 Z" fill="#8b416f" fill-rule="nonzero" group-id="21" node-id="228" stroke="none" target-height="31.503784" target-width="49.092285" target-x="766.56995" target-y="432.14"></path><path d="M 764.73 218.71 L 749.73 220.71 L 750.71 231.27 L 751.18 241.81 L 751.15 252.35 L 750.60 262.89 L 749.55 273.44 L 749.55 336.44 L 749.68 337.43 L 750.01 338.49 L 750.85 340.22 L 752.06 342.06 L 754.17 344.53 L 756.81 347.00 L 760.78 350.06 L 772.72 358.66 L 784.34 367.66 L 795.66 377.06 L 837.40 413.22 L 839.10 411.02 L 843.08 405.33 L 845.36 401.67 L 847.63 397.52 L 849.61 393.21 L 851.06 388.96 L 851.68 386.08 L 851.87 383.45 L 851.66 381.02 L 848.76 380.00 L 841.71 377.03 L 837.47 374.91 L 832.98 372.28 L 828.73 369.25 L 825.05 365.89 L 822.95 363.37 L 821.41 360.75 L 820.38 358.02 L 819.39 355.41 L 817.88 352.86 L 815.80 350.35 L 812.13 346.96 L 807.83 343.82 L 803.25 341.05 L 798.81 338.72 L 795.19 336.60 L 792.07 334.06 L 789.39 331.10 L 787.17 327.78 L 785.49 324.22 L 784.34 320.40 L 783.76 316.44 L 783.80 312.42 L 784.46 308.28 L 785.43 305.25 L 786.81 302.37 L 789.02 298.22 L 791.50 293.07 L 796.30 282.07 L 800.55 271.54 L 803.59 263.63 L 804.75 260.51 L 784.51 221.93 Z" fill="#4d4981" fill-rule="nonzero" group-id="22" node-id="233" stroke="none" target-height="194.50998" target-width="102.31818" target-x="749.55" target-y="218.70999"></path><path d="M 764.73 218.71 L 749.73 220.71 L 750.71 231.27 L 751.18 241.81 L 751.15 252.35 L 750.60 262.89 L 749.55 273.44 L 749.55 336.44 L 749.68 337.43 L 750.01 338.49 L 750.85 340.22 L 752.06 342.06 L 754.17 344.53 L 756.81 347.00 L 760.78 350.06 L 772.72 358.66 L 784.34 367.66 L 795.66 377.06 L 837.40 413.22 L 839.10 411.02 L 843.08 405.33 L 845.36 401.67 L 847.63 397.52 L 849.61 393.21 L 851.06 388.96 L 851.68 386.08 L 851.87 383.45 L 851.66 381.02 L 848.76 380.00 L 841.71 377.03 L 837.47 374.91 L 832.98 372.28 L 828.73 369.25 L 825.05 365.89 L 822.95 363.37 L 821.41 360.75 L 820.38 358.02 L 819.39 355.41 L 817.88 352.86 L 815.80 350.35 L 812.13 346.96 L 807.83 343.82 L 803.25 341.05 L 798.81 338.72 L 795.19 336.60 L 792.07 334.06 L 789.39 331.10 L 787.17 327.78 L 785.49 324.22 L 784.34 320.40 L 783.76 316.44 L 783.80 312.42 L 784.46 308.28 L 785.43 305.25 L 786.81 302.37 L 789.02 298.22 L 791.50 293.07 L 796.30 282.07 L 800.55 271.54 L 803.59 263.63 L 804.75 260.51 L 784.51 221.93 Z" fill="#000000" fill-opacity="0.05" fill-rule="nonzero" group-id="23" node-id="238" stroke="none" target-height="194.50998" target-width="102.31818" target-x="749.55" target-y="218.70999"></path><path d="M 786.81 434.93 L 788.82 435.28 L 793.88 436.22 L 800.50 437.57 L 807.19 439.16 L 812.47 440.79 L 814.29 441.68 L 814.87 442.29 L 815.18 442.98 L 815.26 442.88 L 815.21 441.49 L 815.00 439.57 L 814.87 438.61 L 816.01 434.91 L 818.79 424.78 L 820.43 418.01 L 822.24 409.69 L 823.88 400.91 L 825.38 391.11 L 826.52 381.05 L 827.25 370.52 L 827.42 363.44 L 827.30 356.40 L 826.87 349.38 L 826.19 338.85 L 825.93 329.37 L 826.05 320.87 L 826.76 308.56 L 827.80 298.96 L 829.14 290.35 L 830.24 284.89 L 831.47 279.92 L 832.43 276.52 L 834.52 267.76 L 835.59 262.17 L 836.54 255.78 L 837.15 249.24 L 837.30 242.71 L 837.07 238.37 L 836.50 234.38 L 835.61 230.70 L 834.83 228.91 L 833.71 227.30 L 832.24 225.82 L 830.36 224.49 L 827.62 223.08 L 824.39 221.86 L 820.61 220.85 L 814.74 219.82 L 808.31 219.19 L 801.78 218.91 L 795.38 218.91 L 783.75 219.45 L 775.36 220.20 L 772.13 220.58 L 773.63 224.19 L 777.36 233.70 L 782.19 247.09 L 784.65 254.57 L 786.99 262.35 L 789.04 270.16 L 790.60 277.49 L 791.39 282.39 L 791.81 286.70 L 791.91 290.50 L 792.05 294.29 L 792.46 304.18 L 793.14 317.91 L 794.08 333.24 L 795.26 347.93 L 795.98 354.58 L 796.69 359.73 L 797.59 364.22 L 798.35 366.40 L 797.96 370.09 L 796.93 379.64 L 795.38 392.77 L 793.46 407.16 L 791.30 420.52 L 790.12 426.36 L 789.04 430.54 L 788.12 433.15 L 787.39 434.43 L 786.81 434.93 Z" fill="#4d4981" fill-rule="nonzero" group-id="24" node-id="243" stroke="none" target-height="224.06421" target-width="65.16913" target-x="772.13" target-y="218.91205"></path><path d="M 790.00 80.72 L 790.51 82.43 L 791.27 84.08 L 792.74 86.23 L 793.96 87.57 L 795.61 88.87 L 797.75 90.15 L 800.04 91.09 L 802.95 91.79 L 806.60 92.19 L 810.27 92.15 L 814.80 91.59 L 820.36 90.38 L 802.00 230.21 L 799.05 230.29 L 791.43 230.42 L 781.03 230.43 L 769.73 230.12 L 764.20 229.79 L 759.39 229.34 L 754.94 228.66 L 751.89 227.89 L 750.13 227.12 L 749.32 226.36 L 749.10 225.61 L 760.10 140.98 Z" fill="#ffffff" fill-rule="nonzero" group-id="25" node-id="248" stroke="none" target-height="149.70723" target-width="71.26001" target-x="749.1" target-y="80.719986"></path><path d="M 790.72 79.80 L 787.83 82.21 L 784.61 84.08 L 781.12 85.39 L 777.43 86.11 L 774.00 86.56 L 770.69 87.35 L 767.49 88.49 L 764.37 89.99 L 762.00 91.40 L 759.62 93.03 L 757.38 94.83 L 755.44 96.78 L 753.84 98.93 L 752.77 101.18 L 751.96 102.98 L 750.74 104.99 L 749.02 107.22 L 746.09 110.36 L 742.53 113.53 L 738.67 116.43 L 734.65 118.93 L 730.52 120.97 L 726.73 122.26 L 724.18 122.72 L 722.00 122.73 L 720.11 122.34 L 723.33 149.94 L 726.09 149.72 L 732.85 148.81 L 736.96 148.00 L 741.31 146.86 L 745.52 145.36 L 749.18 143.52 L 751.35 141.99 L 752.98 140.30 L 754.15 138.44 L 746.34 236.93 L 753.24 236.93 L 753.64 234.11 L 754.71 227.19 L 756.22 218.45 L 757.95 210.20 L 758.90 206.74 L 759.68 204.73 L 760.49 202.66 L 761.60 198.82 L 763.82 189.24 L 765.94 178.30 L 767.60 168.28 L 768.42 161.49 L 769.15 155.22 L 770.75 145.07 L 773.02 132.97 L 775.75 120.89 L 777.27 115.28 L 778.73 110.74 L 780.38 106.75 L 781.76 104.49 L 790.76 82.64 Z" fill="#000000" fill-opacity="0.1" fill-rule="nonzero" group-id="26" node-id="253" stroke="none" target-height="157.13" target-width="70.650024" target-x="720.11" target-y="79.79999"></path><path d="M 790.72 81.18 L 787.49 83.37 L 784.02 85.08 L 780.34 86.31 L 776.51 87.03 L 773.08 87.49 L 769.78 88.28 L 766.58 89.43 L 763.46 90.93 L 761.09 92.34 L 758.71 93.97 L 756.47 95.77 L 754.53 97.72 L 752.93 99.87 L 751.86 102.12 L 751.05 103.92 L 749.83 105.93 L 748.11 108.16 L 745.18 111.30 L 741.62 114.47 L 737.76 117.37 L 733.74 119.87 L 729.61 121.91 L 725.82 123.20 L 723.27 123.66 L 721.09 123.67 L 719.20 123.28 L 722.42 150.88 L 725.18 150.66 L 731.94 149.75 L 736.05 148.94 L 740.40 147.80 L 744.61 146.30 L 748.27 144.46 L 750.44 142.93 L 752.07 141.24 L 753.24 139.38 L 745.42 237.81 L 752.32 237.81 L 752.72 234.99 L 753.79 228.07 L 755.30 219.33 L 757.03 211.08 L 757.98 207.62 L 758.76 205.61 L 759.57 203.54 L 760.68 199.70 L 762.90 190.12 L 765.02 179.18 L 766.68 169.16 L 767.50 162.37 L 768.23 156.10 L 769.83 145.95 L 772.10 133.85 L 774.83 121.77 L 776.35 116.16 L 777.81 111.62 L 779.46 107.63 L 780.84 105.37 L 790.72 83.93 Z" fill="#000000" fill-opacity="0.1" fill-rule="nonzero" group-id="27" node-id="258" stroke="none" target-height="156.63" target-width="71.51996" target-x="719.2" target-y="81.17999"></path><path d="M 790.72 80.26 L 787.49 82.45 L 784.02 84.16 L 780.34 85.39 L 776.51 86.11 L 773.08 86.56 L 769.77 87.35 L 766.57 88.49 L 763.45 89.99 L 761.08 91.40 L 758.70 93.03 L 756.46 94.83 L 754.52 96.78 L 752.92 98.93 L 751.85 101.18 L 751.04 102.98 L 749.82 104.99 L 748.10 107.22 L 745.17 110.36 L 741.61 113.53 L 737.75 116.43 L 733.73 118.93 L 729.60 120.97 L 725.81 122.26 L 723.26 122.72 L 721.08 122.73 L 719.19 122.34 L 722.41 149.94 L 725.17 149.72 L 731.93 148.81 L 736.04 148.00 L 740.39 146.86 L 744.60 145.36 L 748.26 143.52 L 750.43 141.99 L 752.06 140.30 L 753.23 138.44 L 745.42 236.93 L 752.32 236.93 L 752.72 234.11 L 753.79 227.19 L 755.30 218.45 L 757.03 210.20 L 757.98 206.74 L 758.76 204.73 L 759.57 202.66 L 760.68 198.82 L 762.90 189.24 L 765.02 178.30 L 766.68 168.28 L 767.50 161.49 L 768.23 155.22 L 769.83 145.07 L 772.10 132.97 L 774.83 120.89 L 776.35 115.28 L 777.81 110.74 L 779.46 106.75 L 780.84 104.49 L 790.73 83.10 Z" fill="#fd6f8d" fill-rule="nonzero" group-id="28" node-id="263" stroke="none" target-height="156.67" target-width="71.53998" target-x="719.19" target-y="80.259995"></path><path d="M 814.18 62.55 L 814.02 60.45 L 814.09 58.59 L 814.65 54.82 L 815.33 50.36 L 789.11 70.14 L 789.49 71.96 L 790.22 76.72 L 792.21 76.96 L 794.22 77.04 L 797.20 76.77 L 799.94 76.06 L 802.48 74.92 L 804.86 73.43 L 807.07 71.65 L 809.11 69.59 L 811.84 66.18 L 814.18 62.55 Z" fill="#000000" fill-opacity="0.1" fill-rule="nonzero" group-id="29" node-id="268" stroke="none" target-height="26.680008" target-width="26.220032" target-x="789.11" target-y="50.359985"></path><path d="M 819.01 50.83 C 819.01 64.55 807.89 75.67 794.17 75.67 C 780.45 75.67 769.33 64.55 769.33 50.83 C 769.33 37.11 780.45 25.99 794.17 25.99 C 807.89 25.99 819.01 37.11 819.01 50.83 Z" fill="#fec3be" fill-rule="nonzero" node-id="271" stroke="none" target-height="49.68" target-width="49.679993" target-x="769.33" target-y="25.99"></path><path d="M 767.06 26.48 L 767.18 22.29 L 767.85 18.20 L 769.06 14.19 L 768.62 15.22 L 768.57 16.29 L 768.89 17.31 L 769.58 18.19 L 770.44 15.06 L 771.78 12.14 L 773.59 9.48 L 775.82 7.13 L 774.66 7.66 L 773.87 8.70 L 773.50 10.00 L 773.58 11.35 L 774.34 12.99 L 775.35 14.42 L 776.65 15.67 L 776.87 13.75 L 777.66 11.96 L 778.90 10.40 L 780.44 9.14 L 782.81 7.96 L 785.27 7.07 L 787.84 6.46 L 786.59 7.15 L 785.67 8.18 L 785.12 9.44 L 785.00 10.86 L 785.10 11.32 L 785.37 11.71 L 786.21 11.93 L 790.10 11.96 L 793.98 11.76 L 798.76 11.36 L 803.55 11.25 L 806.88 11.63 L 810.12 12.43 L 813.28 13.68 L 816.25 15.32 L 818.91 17.29 L 821.29 19.60 L 823.29 22.23 L 824.80 25.10 L 825.84 28.25 L 826.37 31.82 L 826.57 35.43 L 827.06 47.74 L 827.20 51.34 L 827.05 54.92 L 826.62 58.50 L 825.67 61.76 L 824.30 64.76 L 822.49 67.55 L 820.31 70.04 L 817.79 72.18 L 814.91 73.98 L 813.36 71.25 L 812.24 68.33 L 811.44 65.27 L 810.83 62.12 L 809.73 55.80 L 809.19 53.71 L 808.17 51.80 L 807.39 51.02 L 806.45 50.54 L 805.41 50.35 L 804.32 50.50 L 803.47 51.15 L 802.99 52.12 L 802.98 53.16 L 803.51 54.02 L 802.63 54.55 L 801.56 54.48 L 800.47 54.00 L 799.51 53.27 L 797.33 50.86 L 795.55 48.18 L 794.19 45.26 L 793.28 42.14 L 792.40 38.86 L 791.89 37.88 L 791.19 37.15 L 790.28 36.63 L 789.18 36.44 L 788.06 36.48 L 783.04 37.11 L 777.51 37.70 L 774.84 37.64 L 772.59 37.20 L 771.38 36.62 L 770.34 35.78 L 769.43 34.68 L 768.37 32.76 L 767.63 30.62 L 767.19 28.42 L 767.06 26.48 Z" fill="#000000" fill-opacity="0.1" fill-rule="nonzero" group-id="30" node-id="275" stroke="none" target-height="67.520004" target-width="60.140503" target-x="767.06" target-y="6.4599915"></path><path d="M 767.52 26.02 L 767.64 21.83 L 768.31 17.74 L 769.52 13.73 L 769.08 14.76 L 769.03 15.83 L 769.35 16.85 L 770.04 17.73 L 770.90 14.60 L 772.24 11.68 L 774.05 9.02 L 776.28 6.67 L 775.12 7.20 L 774.33 8.24 L 773.96 9.54 L 774.04 10.89 L 774.80 12.53 L 775.81 13.96 L 777.11 15.21 L 777.33 13.29 L 778.12 11.50 L 779.36 9.94 L 780.90 8.68 L 783.27 7.50 L 785.73 6.61 L 788.30 6.00 L 787.05 6.69 L 786.13 7.72 L 785.58 8.98 L 785.46 10.40 L 785.56 10.86 L 785.83 11.25 L 786.67 11.47 L 790.56 11.50 L 794.44 11.30 L 799.22 10.90 L 804.01 10.79 L 807.34 11.17 L 810.58 11.97 L 813.74 13.22 L 816.71 14.86 L 819.37 16.83 L 821.75 19.14 L 823.75 21.77 L 825.26 24.64 L 826.30 27.79 L 826.83 31.36 L 827.03 34.97 L 827.52 47.28 L 827.66 50.88 L 827.51 54.46 L 827.08 58.04 L 826.13 61.30 L 824.76 64.30 L 822.95 67.09 L 820.77 69.58 L 818.25 71.72 L 815.37 73.52 L 813.82 70.79 L 812.70 67.87 L 811.90 64.81 L 811.29 61.66 L 810.19 55.34 L 809.65 53.25 L 808.63 51.34 L 807.86 50.56 L 806.91 50.08 L 805.87 49.89 L 804.78 50.04 L 803.93 50.69 L 803.45 51.66 L 803.44 52.70 L 803.97 53.56 L 803.09 54.09 L 802.02 54.02 L 800.93 53.54 L 799.97 52.81 L 797.79 50.40 L 796.01 47.72 L 794.65 44.80 L 793.74 41.68 L 792.86 38.40 L 792.35 37.43 L 791.65 36.69 L 790.74 36.17 L 789.64 35.98 L 788.52 36.02 L 783.50 36.65 L 777.97 37.24 L 775.30 37.18 L 773.05 36.74 L 771.84 36.15 L 770.80 35.32 L 769.89 34.21 L 768.83 32.30 L 768.09 30.15 L 767.65 27.96 L 767.52 26.02 Z" fill="#784f69" fill-rule="nonzero" group-id="31" node-id="280" stroke="none" target-height="67.51999" target-width="60.140503" target-x="767.52" target-y="6"></path><path d="M 718.00 122.35 L 717.67 124.20 L 717.15 129.01 L 717.02 132.09 L 717.11 135.66 L 717.48 139.29 L 718.24 143.01 L 719.45 146.60 L 721.22 149.95 L 725.13 149.63 L 723.00 122.63 Z" fill="#000000" fill-opacity="0.1" fill-rule="nonzero" group-id="32" node-id="285" stroke="none" target-height="27.599976" target-width="8.106873" target-x="717.02313" target-y="122.350006"></path><path d="M 719.00 122.35 L 718.67 124.20 L 718.15 129.01 L 718.02 132.09 L 718.11 135.66 L 718.48 139.29 L 719.24 143.01 L 720.45 146.60 L 722.22 149.95 L 726.13 149.63 L 724.00 122.63 Z" fill="#fd6f8d" fill-rule="nonzero" group-id="33" node-id="290" stroke="none" target-height="27.599976" target-width="8.106812" target-x="718.0232" target-y="122.350006"></path><path d="M 817.86 75.93 L 847.53 101.46 L 849.29 103.56 L 850.98 105.91 L 853.21 109.63 L 855.28 113.88 L 857.27 119.34 L 858.28 123.20 L 859.01 127.52 L 859.42 132.37 L 859.39 137.22 L 858.82 142.53 L 857.65 148.38 L 857.39 151.52 L 856.68 159.42 L 855.58 169.77 L 854.17 180.27 L 853.34 185.06 L 852.54 188.63 L 851.83 190.88 L 851.24 192.05 L 850.75 192.54 L 849.40 195.41 L 846.16 203.17 L 844.25 208.30 L 842.20 214.50 L 840.36 221.02 L 838.74 228.10 L 837.56 235.35 L 836.95 242.68 L 835.97 240.82 L 833.35 236.29 L 831.59 233.56 L 829.55 230.68 L 827.32 227.93 L 825.03 225.57 L 822.57 223.65 L 820.27 222.55 L 818.70 222.27 L 817.21 222.48 L 815.73 223.20 L 814.49 224.33 L 813.20 226.21 L 811.88 229.11 L 810.11 233.24 L 808.20 236.77 L 806.17 239.75 L 803.86 242.54 L 801.59 244.85 L 799.35 246.75 L 795.83 249.19 L 792.78 250.85 L 789.85 252.11 L 787.83 252.78 L 785.88 253.26 L 796.00 128.10 L 797.40 125.62 L 800.98 119.12 L 805.76 110.02 L 810.80 99.73 L 813.15 94.50 L 815.14 89.68 L 816.80 85.00 L 817.81 81.27 L 818.19 78.83 L 818.17 77.11 L 817.86 75.93 Z" fill="#000000" fill-opacity="0.1" fill-rule="nonzero" group-id="34" node-id="295" stroke="none" target-height="177.32999" target-width="73.54382" target-x="785.88" target-y="75.92999"></path><path d="M 818.78 75.93 L 848.45 101.46 L 850.21 103.56 L 851.90 105.91 L 854.13 109.63 L 856.20 113.88 L 858.19 119.34 L 859.20 123.20 L 859.93 127.52 L 860.34 132.37 L 860.31 137.22 L 859.74 142.53 L 858.57 148.38 L 858.31 151.52 L 857.60 159.42 L 856.50 169.77 L 855.09 180.27 L 854.26 185.06 L 853.46 188.63 L 852.75 190.88 L 852.16 192.05 L 851.67 192.54 L 850.32 195.41 L 847.08 203.17 L 845.17 208.30 L 843.12 214.50 L 841.28 221.02 L 839.66 228.10 L 838.48 235.35 L 837.87 242.68 L 836.84 240.72 L 834.09 235.92 L 832.25 233.03 L 830.10 229.95 L 827.78 227.01 L 825.39 224.45 L 822.83 222.33 L 820.45 221.07 L 818.81 220.69 L 817.28 220.82 L 815.78 221.46 L 814.51 222.54 L 813.20 224.38 L 811.87 227.27 L 810.12 231.42 L 808.24 235.01 L 806.26 238.10 L 802.91 242.32 L 799.66 245.56 L 796.28 248.29 L 793.37 250.21 L 790.57 251.73 L 788.66 252.60 L 786.80 253.27 L 796.92 128.16 L 798.32 125.68 L 801.90 119.17 L 806.68 110.05 L 811.72 99.75 L 814.07 94.52 L 816.06 89.69 L 817.72 85.00 L 818.73 81.27 L 819.11 78.83 L 819.09 77.11 L 818.78 75.93 Z" fill="#fd6f8d" fill-rule="nonzero" group-id="35" node-id="300" stroke="none" target-height="177.34" target-width="73.54376" target-x="786.8" target-y="75.92999"></path><path d="M 832.35 183.76 L 833.69 183.19 L 835.16 182.90 L 837.52 182.95 L 839.15 183.28 L 841.15 184.03 L 843.61 185.31 L 845.87 186.87 L 848.53 189.21 L 851.67 192.50 L 822.23 245.86 L 812.34 230.93 L 813.89 227.85 L 817.73 220.03 L 822.69 209.59 L 827.57 198.65 L 829.68 193.47 L 831.19 189.33 L 832.22 185.61 L 832.35 183.76 Z" fill="#fec3be" fill-rule="nonzero" group-id="36" node-id="305" stroke="none" target-height="62.963257" target-width="39.329956" target-x="812.34" target-y="182.89673"></path><path d="M 825.22 186.75 L 826.96 188.63 L 831.36 193.00 L 834.14 195.51 L 837.14 197.96 L 840.25 200.13 L 843.06 201.63 L 844.98 202.27 L 846.54 202.40 L 847.85 202.10 L 853.73 188.41 L 831.66 178.93 Z" fill="#000000" fill-opacity="0.1" fill-rule="nonzero" group-id="37" node-id="310" stroke="none" target-height="23.467773" target-width="28.51001" target-x="825.22" target-y="178.93"></path><path d="M 825.22 185.83 L 826.96 187.71 L 831.36 192.08 L 834.14 194.59 L 837.14 197.04 L 840.25 199.21 L 843.06 200.71 L 844.98 201.35 L 846.54 201.48 L 847.85 201.18 L 853.73 187.49 L 831.66 178.01 Z" fill="#fd6f8d" fill-rule="nonzero" group-id="38" node-id="315" stroke="none" target-height="23.467773" target-width="28.51001" target-x="825.22" target-y="178.00998"></path><path d="M 813.34 227.44 L 814.18 229.10 L 816.33 233.09 L 819.25 237.93 L 820.88 240.27 L 822.40 242.14 L 823.99 243.63 L 825.22 244.24 L 819.22 251.14 L 810.48 234.58 Z" fill="#000000" fill-opacity="0.1" fill-rule="nonzero" group-id="39" node-id="320" stroke="none" target-height="23.699982" target-width="14.73999" target-x="810.48" target-y="227.44"></path><path d="M 812.88 227.93 L 813.72 229.59 L 815.87 233.58 L 818.79 238.42 L 820.42 240.76 L 821.94 242.63 L 823.53 244.12 L 824.76 244.73 L 818.76 251.63 L 810.00 235.04 Z" fill="#4d4981" fill-rule="nonzero" group-id="40" node-id="325" stroke="none" target-height="23.700012" target-width="14.76001" target-x="810" target-y="227.93"></path><path d="M 827.52 129.71 L 827.57 132.22 L 827.62 138.76 L 827.52 147.82 L 827.11 157.92 L 826.74 162.97 L 826.24 167.56 L 825.56 171.91 L 824.76 175.25" fill="#000000" fill-opacity="0.1" fill-rule="nonzero" group-id="41" node-id="330" stroke="none" target-height="45.54001" target-width="2.8621216" target-x="824.76" target-y="129.70999"></path><path d="M 753.00 136.15 L 754.43 135.50 L 755.71 134.69 L 757.09 133.42 L 757.82 132.41 L 758.30 131.19 L 758.52 129.71" fill="#000000" fill-opacity="0.1" fill-rule="nonzero" group-id="42" node-id="335" stroke="none" target-height="6.4400024" target-width="5.5200195" target-x="753" target-y="129.70999"></path><path d="M 82.69 141.69 L 80.83 146.00 L 79.01 150.74 L 76.53 158.13 L 74.16 166.39 L 71.73 176.83 L 70.38 184.08 L 69.26 192.08 L 68.37 200.89 L 67.90 209.69 L 67.89 219.07 L 68.38 229.06 L 69.10 236.47 L 70.21 244.10 L 71.74 251.98 L 73.69 260.12 L 76.35 270.92 L 78.60 281.85 L 80.46 292.94 L 81.93 304.09 L 83.03 315.07 L 83.75 325.91 L 84.13 336.77 L 84.17 347.15 L 83.88 357.07 L 83.24 366.99 L 82.32 376.11 L 81.13 384.46 L 79.56 392.78 L 77.78 399.97 L 75.83 406.13 L 73.99 410.77 L 72.11 414.58 L 70.20 417.66 L 68.27 420.12" fill="none" group-id="43" node-id="340" stroke="#535461" stroke-linecap="butt" stroke-width="2" target-height="278.43" target-width="16.280853" target-x="67.887924" target-y="141.69"></path><path d="M 89.92 141.70 C 89.92 145.69 86.68 148.93 82.69 148.93 C 78.70 148.93 75.46 145.69 75.46 141.70 C 75.46 137.71 78.70 134.47 82.69 134.47 C 86.68 134.47 89.92 137.71 89.92 141.70 Z" fill="#6c63ff" fill-rule="nonzero" node-id="343" stroke="none" target-height="14.459991" target-width="14.459999" target-x="75.46" target-y="134.47"></path><path d="M 71.79 176.58 L 74.67 177.01 L 81.82 177.67 L 86.23 177.79 L 90.96 177.62 L 95.64 177.01 L 99.85 175.90 L 102.44 174.77 L 104.53 173.33 L 106.20 171.58" fill="none" group-id="44" node-id="347" stroke="#535461" stroke-linecap="butt" stroke-width="2" target-height="6.212799" target-width="34.410004" target-x="71.78999" target-y="171.57999"></path><path d="M 69.21 192.33 L 67.52 190.36 L 63.51 185.27 L 61.19 181.98 L 58.81 178.26 L 56.68 174.39 L 55.02 170.57 L 54.21 167.95 L 53.80 165.57 L 53.76 163.39" fill="none" group-id="45" node-id="352" stroke="#535461" stroke-linecap="butt" stroke-width="2" target-height="28.940002" target-width="15.450012" target-x="53.759995" target-y="163.38998"></path><path d="M 67.82 225.47 L 69.48 225.65 L 71.23 225.56 L 73.92 225.00 L 75.75 224.37 L 77.89 223.32 L 80.39 221.76 L 82.69 219.97 L 85.24 217.48 L 88.09 214.18 L 90.63 210.66 L 93.35 206.15 L 96.26 200.47" fill="none" group-id="46" node-id="357" stroke="#535461" stroke-linecap="butt" stroke-width="2" target-height="25.17633" target-width="28.439987" target-x="67.82001" target-y="200.47"></path><path d="M 71.79 249.57 L 69.07 247.74 L 62.36 242.83 L 58.28 239.57 L 53.85 235.75 L 49.59 231.65 L 45.72 227.38 L 43.39 224.36 L 41.54 221.45 L 40.14 218.63 L 39.19 215.69 L 38.93 212.97 L 39.30 210.40" fill="none" group-id="47" node-id="362" stroke="#535461" stroke-linecap="butt" stroke-width="2" target-height="39.170013" target-width="32.856033" target-x="38.93396" target-y="210.4"></path><path d="M 77.57 276.82 L 79.48 275.01 L 84.19 270.02 L 87.04 266.64 L 90.19 262.49 L 93.18 258.02 L 95.97 253.08 L 97.59 249.63 L 98.93 246.08 L 100.00 242.43 L 100.71 238.71 L 100.97 234.97 L 100.78 231.19" fill="none" group-id="48" node-id="367" stroke="#535461" stroke-linecap="butt" stroke-width="2" target-height="45.630005" target-width="23.39653" target-x="77.57001" target-y="231.19"></path><path d="M 80.39 292.84 L 77.95 292.09 L 71.87 289.91 L 68.13 288.36 L 64.02 286.42 L 59.99 284.21 L 56.24 281.73 L 53.92 279.86 L 51.99 277.93 L 50.41 275.93 L 49.20 273.75 L 48.54 271.51 L 48.39 269.16" fill="none" group-id="49" node-id="372" stroke="#535461" stroke-linecap="butt" stroke-width="2" target-height="23.679993" target-width="32" target-x="48.39" target-y="269.16"></path><path d="M 82.69 311.93 L 84.87 309.83 L 90.18 304.40 L 93.37 300.90 L 96.75 296.91 L 99.95 292.76 L 102.71 288.66 L 104.31 285.82 L 105.45 283.26 L 106.19 280.93" fill="none" group-id="50" node-id="377" stroke="#535461" stroke-linecap="butt" stroke-width="2" target-height="31" target-width="23.5" target-x="82.69" target-y="280.93"></path><path d="M 84.14 344.68 L 82.56 342.78 L 78.58 337.76 L 73.36 330.65 L 70.66 326.64 L 68.07 322.49 L 65.72 318.26 L 63.86 314.30 L 62.49 310.39 L 61.90 307.13" fill="none" group-id="51" node-id="382" stroke="#535461" stroke-linecap="butt" stroke-width="2" target-height="37.549988" target-width="22.240005" target-x="61.899994" target-y="307.13"></path><path d="M 84.14 365.29 L 85.92 363.27 L 90.40 357.95 L 96.30 350.45 L 99.38 346.24 L 102.35 341.90 L 105.09 337.50 L 107.28 333.41 L 108.98 329.38 L 109.81 326.12" fill="none" group-id="52" node-id="387" stroke="#535461" stroke-linecap="butt" stroke-width="2" target-height="39.169983" target-width="25.669998" target-x="84.14" target-y="326.12"></path><path d="M 60.99 165.20 C 60.99 169.19 57.75 172.43 53.76 172.43 C 49.77 172.43 46.53 169.19 46.53 165.20 C 46.53 161.21 49.77 157.97 53.76 157.97 C 57.75 157.97 60.99 161.21 60.99 165.20 Z" fill="#6c63ff" fill-rule="nonzero" node-id="390" stroke="none" target-height="14.459991" target-width="14.460003" target-x="46.53" target-y="157.97"></path><path d="M 52.86 269.16 C 52.86 273.15 49.62 276.39 45.63 276.39 C 41.64 276.39 38.40 273.15 38.40 269.16 C 38.40 265.17 41.64 261.93 45.63 261.93 C 49.62 261.93 52.86 265.17 52.86 269.16 Z" fill="#6c63ff" fill-rule="nonzero" node-id="392" stroke="none" target-height="14.460022" target-width="14.459999" target-x="38.4" target-y="261.93"></path><path d="M 46.53 210.40 C 46.53 214.39 43.29 217.63 39.30 217.63 C 35.31 217.63 32.07 214.39 32.07 210.40 C 32.07 206.41 35.31 203.17 39.30 203.17 C 43.29 203.17 46.53 206.41 46.53 210.40 Z" fill="#6c63ff" fill-rule="nonzero" node-id="394" stroke="none" target-height="14.460007" target-width="14.459999" target-x="32.07" target-y="203.17"></path><path d="M 113.43 171.53 C 113.43 175.52 110.19 178.76 106.20 178.76 C 102.21 178.76 98.97 175.52 98.97 171.53 C 98.97 167.54 102.21 164.30 106.20 164.30 C 110.19 164.30 113.43 167.54 113.43 171.53 Z" fill="#6c63ff" fill-rule="nonzero" node-id="396" stroke="none" target-height="14.459991" target-width="14.459999" target-x="98.97" target-y="164.3"></path><path d="M 113.43 282.72 C 113.43 286.71 110.19 289.95 106.20 289.95 C 102.21 289.95 98.97 286.71 98.97 282.72 C 98.97 278.73 102.21 275.49 106.20 275.49 C 110.19 275.49 113.43 278.73 113.43 282.72 Z" fill="#6c63ff" fill-rule="nonzero" node-id="398" stroke="none" target-height="14.460022" target-width="14.459999" target-x="98.97" target-y="275.49"></path><path d="M 101.68 200.46 C 101.68 204.45 98.44 207.69 94.45 207.69 C 90.46 207.69 87.22 204.45 87.22 200.46 C 87.22 196.47 90.46 193.23 94.45 193.23 C 98.44 193.23 101.68 196.47 101.68 200.46 Z" fill="#6c63ff" fill-rule="nonzero" node-id="400" stroke="none" target-height="14.460007" target-width="14.459999" target-x="87.22" target-y="193.23"></path><path d="M 116.14 330.64 C 116.14 334.63 112.90 337.87 108.91 337.87 C 104.92 337.87 101.68 334.63 101.68 330.64 C 101.68 326.65 104.92 323.41 108.91 323.41 C 112.90 323.41 116.14 326.65 116.14 330.64 Z" fill="#6c63ff" fill-rule="nonzero" node-id="402" stroke="none" target-height="14.459991" target-width="14.459999" target-x="101.68" target-y="323.41"></path><path d="M 67.32 311.65 C 67.32 315.64 64.08 318.88 60.09 318.88 C 56.10 318.88 52.86 315.64 52.86 311.65 C 52.86 307.66 56.10 304.42 60.09 304.42 C 64.08 304.42 67.32 307.66 67.32 311.65 Z" fill="#6c63ff" fill-rule="nonzero" node-id="404" stroke="none" target-height="14.459991" target-width="14.459999" target-x="52.86" target-y="304.42"></path><path d="M 108.91 231.19 C 108.91 235.18 105.67 238.42 101.68 238.42 C 97.69 238.42 94.45 235.18 94.45 231.19 C 94.45 227.20 97.69 223.96 101.68 223.96 C 105.67 223.96 108.91 227.20 108.91 231.19 Z" fill="#6c63ff" fill-rule="nonzero" node-id="406" stroke="none" target-height="14.459991" target-width="14.460007" target-x="94.45" target-y="223.96"></path></svg>